<svg width="32" height="32" viewBox="0 0 32 32" fill="none" xmlns="http://www.w3.org/2000/svg" role="img" aria-label="Houdini">
  <!-- Free top-hat mark (transparent — no card). Flared violet→magenta crown, gold
       hat-band, curved brim, and the gold reveal spark. -->
  <defs>
    <linearGradient id="fh" x1="6" y1="26" x2="26" y2="6" gradientUnits="userSpaceOnUse">
      <stop offset="0" stop-color="#7C3AED"/><stop offset="0.55" stop-color="#8B5CF6"/><stop offset="1" stop-color="#C026D3"/>
    </linearGradient>
    <clipPath id="fc"><path d="M11 22.6 L9.7 11 Q9.6 8.6 12.1 8.6 L19.9 8.6 Q22.4 8.6 22.3 11 L21 22.6 Z"/></clipPath>
  </defs>
  <ellipse cx="16" cy="23.2" rx="12.4" ry="3" fill="url(#fh)"/>
  <ellipse cx="16" cy="22.5" rx="12.4" ry="2.4" fill="#000000" opacity="0.12"/>
  <path d="M11 22.6 L9.7 11 Q9.6 8.6 12.1 8.6 L19.9 8.6 Q22.4 8.6 22.3 11 L21 22.6 Z" fill="url(#fh)"/>
  <g clip-path="url(#fc)">
    <rect x="8" y="17.6" width="16" height="2.9" fill="#F5C451"/>
    <rect x="8" y="17.6" width="16" height="0.9" fill="#FFFFFF" opacity="0.25"/>
  </g>
  <path transform="translate(25 6.6)" d="M0 -4.4 C0.7 -1.3 1.3 -0.7 4.4 0 C1.3 0.7 0.7 1.3 0 4.4 C-0.7 1.3 -1.3 0.7 -4.4 0 C-1.3 -0.7 -0.7 -1.3 0 -4.4 Z" fill="#F5C451"/>
</svg>
